<?xml version="1.0" standalone="no"?>
<!DOCTYPE svg PUBLIC "-//W3C//DTD SVG 20010904//EN"
 "http://www.w3.org/TR/2001/REC-SVG-20010904/DTD/svg10.dtd">
<svg version="1.0" xmlns="http://www.w3.org/2000/svg"
 width="700.000000pt" height="700.000000pt" viewBox="0 0 700.000000 700.000000"
 preserveAspectRatio="xMidYMid meet">
<metadata>
Created by potrace 1.14, written by Peter Selinger 2001-2017
</metadata>
<g transform="translate(0.000000,700.000000) scale(0.100000,-0.100000)"
fill="#000000" stroke="none">
<path d="M3280 6994 c-19 -2 -84 -9 -145 -14 -578 -56 -1180 -283 -1660 -625
-237 -169 -531 -446 -709 -670 -416 -521 -673 -1147 -748 -1820 -17 -155 -17
-575 0 -730 52 -469 198 -931 418 -1327 290 -523 731 -983 1239 -1294 439
-269 920 -432 1460 -496 145 -17 576 -17 730 0 822 91 1556 447 2131 1034 203
206 348 390 487 618 274 449 433 916 499 1465 16 136 16 592 0 730 -86 725
-352 1347 -803 1885 -122 145 -351 370 -494 484 -510 407 -1117 661 -1775 742
-117 15 -553 27 -630 18z m-1153 -1175 c95 -36 141 -156 94 -247 -11 -20 -155
-172 -320 -337 l-301 -300 309 -310 c171 -170 315 -323 320 -338 58 -154 -96
-299 -243 -227 -57 27 -780 752 -801 802 -20 51 -19 111 4 156 27 52 757 777
801 796 41 18 98 20 137 5z m900 1 c42 -16 791 -766 814 -815 24 -51 24 -89 0
-140 -23 -49 -772 -799 -814 -814 -105 -40 -222 29 -243 142 -14 78 3 99 331
427 168 168 305 309 305 315 0 5 -139 149 -309 320 -269 269 -311 316 -321
353 -13 49 0 110 33 156 38 54 136 81 204 56z m2243 -383 c72 -37 131 -96 166
-165 l29 -57 0 -1715 0 -1715 -29 -57 c-35 -69 -94 -128 -166 -165 l-55 -28
-1715 0 -1715 0 -48 24 c-70 35 -139 101 -172 168 l-30 58 -3 790 c-2 574 1
797 9 817 6 15 28 43 49 62 42 38 103 53 160 41 34 -7 93 -54 113 -89 9 -16
13 -210 17 -771 l5 -750 1615 0 1615 0 0 1615 0 1615 -300 5 c-340 6 -345 7
-390 83 -50 86 -24 192 61 244 l39 23 345 -2 345 -3 55 -28z"/>
</g>
</svg>
