<?xml version="1.0" standalone="no"?>
<!DOCTYPE svg PUBLIC "-//W3C//DTD SVG 20010904//EN"
 "http://www.w3.org/TR/2001/REC-SVG-20010904/DTD/svg10.dtd">
<svg version="1.0" xmlns="http://www.w3.org/2000/svg"
 width="592.000000pt" height="592.000000pt" viewBox="0 0 592.000000 592.000000"
 preserveAspectRatio="xMidYMid meet">
<metadata>
Created by potrace 1.14, written by Peter Selinger 2001-2017
</metadata>
<g transform="translate(0.000000,592.000000) scale(0.100000,-0.100000)"
fill="#000000" stroke="none">
<path d="M828 5655 c-3 -3 -25 -8 -48 -10 -37 -4 -61 -10 -128 -30 -7 -3 -16
-5 -20 -6 -26 -5 -122 -55 -183 -94 -218 -141 -373 -382 -405 -630 -9 -75 -10
-3769 0 -3845 15 -123 67 -259 141 -376 43 -67 181 -214 202 -214 7 0 13 -4
13 -9 0 -11 143 -95 180 -106 14 -4 30 -11 35 -15 6 -5 39 -16 75 -25 36 -9
74 -20 85 -23 36 -12 4295 -12 4350 -1 28 6 60 12 72 15 45 9 166 56 221 86
235 128 400 359 453 631 9 47 13 529 13 1940 1 1034 -2 1881 -6 1883 -4 3 -5
11 -2 19 9 23 -24 167 -55 245 -33 80 -97 190 -136 235 -15 17 -37 41 -49 55
-76 88 -260 205 -371 235 -16 4 -34 9 -40 11 -18 5 -59 15 -105 24 -47 10
-4283 14 -4292 5z m657 -1146 c55 -26 755 -730 780 -784 30 -66 23 -154 -19
-213 -14 -21 -182 -193 -373 -384 -381 -379 -393 -389 -493 -384 -153 8 -250
151 -199 295 16 48 47 82 283 320 146 146 266 271 266 276 0 6 -118 129 -263
275 -146 146 -273 281 -282 300 -26 50 -28 135 -5 186 33 75 86 119 163 133
54 10 92 4 142 -20z m2010 -1343 c146 -63 183 -239 77 -363 -11 -12 -41 -32
-68 -45 l-49 -23 -490 2 c-269 1 -497 3 -505 3 -62 5 -149 89 -167 160 -5 19
-5 101 -1 120 17 70 96 144 172 159 15 4 245 6 510 5 434 0 485 -2 521 -18z"/>
</g>
</svg>
